<svg width="720" height="240" viewBox="0 0 720 240" fill="none" xmlns="http://www.w3.org/2000/svg">
<path d="M180.249 183.177C174.836 185.949 127.823 195.44 92.1051 185.722C65.4219 178.441 29.8323 157.653 18.0004 150.478C15.8362 149.166 15.3532 146.271 16.9196 144.279L60.8129 88.4611C62.6743 86.0941 66.3479 86.3208 67.9504 88.8714C75.0586 100.185 93.0525 127.01 114.486 145.261C143.237 169.758 166.467 176.634 180.409 178.226C182.132 178.423 185.661 180.405 180.249 183.177Z" fill="#00D6BC"/>
<path d="M167.577 163.734C163.126 162.752 131.387 145.773 115.31 123.067C103.736 106.696 93.3288 79.0859 89.5105 68.3402C88.6612 65.9501 90.1174 63.4018 92.5881 62.8618L141.827 52.1006C144.763 51.459 147.461 53.9804 147.106 56.9746C145.832 67.7192 143.915 90.5271 147.483 110.329C152.508 138.266 162.7 153.355 170.02 160.943C170.925 161.881 172.028 164.716 167.577 163.734Z" fill="#00D6BC"/>
<path d="M172.604 150.816C170.568 148.41 160.203 125.775 160.826 106.561C161.258 93.5124 166.416 75.4149 168.997 67.0934C169.749 64.6705 172.449 63.5121 174.741 64.5834L203.181 77.8754C205.904 79.1484 206.531 82.805 204.469 84.9976C198.974 90.8385 189.584 101.672 183.802 113.055C174.93 130.507 174.246 143.07 175.108 150.307C175.215 151.202 174.64 153.222 172.604 150.816Z" fill="#00D6BC"/>
<path d="M184.392 143.711C184.307 141.885 187.537 127.826 194.597 119.238C199.154 113.704 207.269 107.595 211.602 104.511C213.149 103.41 215.279 103.964 216.15 105.654L223.639 120.173C224.675 122.182 223.371 124.646 221.149 125.024C216.449 125.824 209.018 127.441 202.842 130.374C192.62 135.226 187.877 140.743 185.72 144.367C185.453 144.815 184.478 145.537 184.392 143.711Z" fill="#00D6BC"/>
<path d="M291.913 171.416C271.183 171.416 256 154.357 256 133.475C256 112.886 272.351 95.8274 294.103 95.8274C315.709 95.8274 332.206 112.004 332.206 133.475V169.651H318.483V157.004C313.082 165.827 303.592 171.416 291.913 171.416ZM294.103 157.592C307.534 157.592 317.753 146.71 317.753 133.622C317.753 120.386 307.534 109.504 294.103 109.504C280.818 109.504 270.453 120.386 270.453 133.622C270.453 146.71 280.818 157.592 294.103 157.592Z" fill="#334155"/>
<path d="M351.449 64.5039H365.902V169.651H351.449V64.5039Z" fill="#334155"/>
<path d="M418.498 171.269C396.745 171.269 380.541 155.386 380.541 133.18C380.541 112.445 395.286 95.5333 416.746 95.5333C438.352 95.5333 451.783 111.269 451.783 131.416V137.298H394.556C396.162 149.651 405.505 158.327 418.352 158.327C427.111 158.327 434.994 154.504 439.228 146.563L450.323 152.298C444.046 164.651 432.513 171.269 418.498 171.269ZM395.14 127.886H437.33C436.746 116.416 428.425 108.622 416.6 108.622C404.483 108.622 396.599 117.151 395.14 127.886Z" fill="#334155"/>
<path d="M496.922 204.504C481.447 204.504 468.6 197.739 462.031 184.945L474.148 178.327C478.382 186.122 486.265 191.122 496.63 191.122C511.667 191.122 521.886 180.239 521.886 163.327V157.592C517.215 165.092 508.455 170.68 496.484 170.68C476.192 170.68 460.133 154.504 460.133 133.327C460.133 112.739 476.484 95.8274 498.236 95.8274C519.842 95.8274 536.339 112.004 536.339 133.475V163.18C536.339 188.18 519.696 204.504 496.922 204.504ZM498.09 157.004C511.229 157.004 521.74 146.416 521.74 133.18C521.74 119.945 511.229 109.651 498.09 109.651C485.097 109.651 474.44 119.945 474.44 133.18C474.44 146.416 485.097 157.004 498.09 157.004Z" fill="#334155"/>
<path d="M567.115 169.651H552.662V126.71C552.662 109.21 562.59 96.1216 581.276 96.1216C585.802 96.1216 590.473 97.0039 594.123 98.7686V113.18C590.619 111.122 586.532 110.092 582.59 110.092C572.955 110.092 567.115 116.71 567.115 127.298V169.651Z" fill="#334155"/>
<path d="M631.707 171.416C610.977 171.416 595.794 154.357 595.794 133.475C595.794 112.886 612.145 95.8274 633.897 95.8274C655.503 95.8274 672 112.004 672 133.475V169.651H658.277V157.004C652.876 165.827 643.386 171.416 631.707 171.416ZM633.897 157.592C647.328 157.592 657.547 146.71 657.547 133.622C657.547 120.386 647.328 109.504 633.897 109.504C620.612 109.504 610.247 120.386 610.247 133.622C610.247 146.71 620.612 157.592 633.897 157.592Z" fill="#334155"/>
</svg>
